<?xml version="1.0" encoding="UTF-8" standalone="no"?>
<!-- Created with Inkscape (http://www.inkscape.org/) -->

<svg
   xmlns:dc="http://purl.org/dc/elements/1.1/"
   xmlns:cc="http://creativecommons.org/ns#"
   xmlns:rdf="http://www.w3.org/1999/02/22-rdf-syntax-ns#"
   xmlns:svg="http://www.w3.org/2000/svg"
   xmlns="http://www.w3.org/2000/svg"
   xmlns:sodipodi="http://sodipodi.sourceforge.net/DTD/sodipodi-0.dtd"
   xmlns:inkscape="http://www.inkscape.org/namespaces/inkscape"
   id="svg2"
   version="1.1"
   inkscape:version="0.47 r22583"
   width="562.06431"
   height="493.72388"
   xml:space="preserve"
   sodipodi:docname="ctd-object.pdf"><metadata
     id="metadata8"><rdf:RDF><cc:Work
         rdf:about=""><dc:format>image/svg+xml</dc:format><dc:type
           rdf:resource="http://purl.org/dc/dcmitype/StillImage" /><dc:title></dc:title></cc:Work></rdf:RDF></metadata><defs
     id="defs6"><inkscape:perspective
       sodipodi:type="inkscape:persp3d"
       inkscape:vp_x="0 : 0.5 : 1"
       inkscape:vp_y="0 : 1000 : 0"
       inkscape:vp_z="1 : 0.5 : 1"
       inkscape:persp3d-origin="0.5 : 0.33333333 : 1"
       id="perspective10" /><clipPath
       clipPathUnits="userSpaceOnUse"
       id="clipPath20"><path
         d="m 18,11.33859 576,0 0,769.3228 -576,0 0,-769.3228 z"
         id="path22" /></clipPath></defs><sodipodi:namedview
     pagecolor="#ffffff"
     bordercolor="#666666"
     borderopacity="1"
     objecttolerance="10"
     gridtolerance="10"
     guidetolerance="10"
     inkscape:pageopacity="0"
     inkscape:pageshadow="2"
     inkscape:window-width="996"
     inkscape:window-height="701"
     id="namedview4"
     showgrid="false"
     inkscape:zoom="1"
     inkscape:cx="320.97354"
     inkscape:cy="232.10646"
     inkscape:window-x="0"
     inkscape:window-y="0"
     inkscape:window-maximized="0"
     inkscape:current-layer="g12" /><g
     id="g12"
     inkscape:groupmode="layer"
     inkscape:label="ctd-object"
     transform="matrix(1.25,0,0,-1.25,-70.313812,955.1325)"><g
       id="g14" /><path
       d="m 31.6,25.73856 576,0 0,770 -576,0 0,-770 z"
       style="fill:#ffffff;fill-opacity:1;fill-rule:nonzero;stroke:none"
       id="path24" /><path
       d="m 250.2,720.6614 81,0 0,36 -81,0 0,-36 z"
       style="fill:#ffffff;fill-opacity:1;fill-rule:nonzero;stroke:none"
       id="path26" /><g
       id="g28"
       transform="matrix(1,0,0,-1,18,780.6614)"><path
         d="m 217,24 81,0 0,36 -81,0 0,-36 z"
         style="fill:none;stroke:#000000;stroke-width:1;stroke-linecap:round;stroke-linejoin:round;stroke-miterlimit:10;stroke-opacity:1;stroke-dasharray:none"
         id="path30" /></g><g
       id="g32"
       transform="matrix(1,0,0,-1,276.3,740.2614)"><text
         transform="translate(-30.00879,4)"
         id="text34"><tspan
           style="font-size:12px;font-variant:normal;font-weight:normal;text-align:justify;writing-mode:lr-tb;text-anchor:start;fill:#000000;fill-opacity:1;fill-rule:nonzero;stroke:none;font-family:Helvetica;-inkscape-font-specification:Helvetica"
           sodipodi:role="line"
           id="tspan36"
           x="0"
           y="0">ctd object</tspan></text>
</g><path
       d="m 64,628.6614 81,0 0,36 -81,0 0,-36 z"
       style="fill:#ffffff;fill-opacity:1;fill-rule:nonzero;stroke:none"
       id="path38" /><g
       id="g40"
       transform="matrix(1,0,0,-1,18,780.6614)"><path
         d="m 46,116 81,0 0,36 -81,0 0,-36 z"
         style="fill:none;stroke:#000000;stroke-width:1;stroke-linecap:round;stroke-linejoin:round;stroke-miterlimit:10;stroke-opacity:1;stroke-dasharray:none"
         id="path42" /></g><g
       id="g44"
       transform="matrix(1,0,0,-1,104.5,646.6614)"><text
         transform="translate(-11.67773,4)"
         id="text46"><tspan
           style="font-size:12px;font-variant:normal;font-weight:normal;writing-mode:lr-tb;fill:#000000;fill-opacity:1;fill-rule:nonzero;stroke:none;font-family:Helvetica;-inkscape-font-specification:Helvetica"
           x="0 6.6719999 13.344 16.68"
           y="0"
           sodipodi:role="line"
           id="tspan48">data</tspan></text>
</g><path
       d="m 235,628.6614 81,0 0,36 -81,0 0,-36 z"
       style="fill:#ffffff;fill-opacity:1;fill-rule:nonzero;stroke:none"
       id="path50" /><g
       id="g52"
       transform="matrix(1,0,0,-1,18,780.6614)"><path
         d="m 217,116 81,0 0,36 -81,0 0,-36 z"
         style="fill:none;stroke:#000000;stroke-width:1;stroke-linecap:round;stroke-linejoin:round;stroke-miterlimit:10;stroke-opacity:1;stroke-dasharray:none"
         id="path54" /></g><g
       id="g56"
       transform="matrix(1,0,0,-1,275.5,646.6614)"><text
         transform="translate(-25.0166,4)"
         id="text58"><tspan
           style="font-size:12px;font-variant:normal;font-weight:normal;writing-mode:lr-tb;fill:#000000;fill-opacity:1;fill-rule:nonzero;stroke:none;font-family:Helvetica;-inkscape-font-specification:Helvetica"
           x="0 9.9960003 16.667999 20.004 26.676001 33.348 40.02 43.355999"
           y="0"
           sodipodi:role="line"
           id="tspan60">metadata</tspan></text>
</g><path
       d="m 382,628.6614 95,0 0,36 -95,0 0,-36 z"
       style="fill:#ffffff;fill-opacity:1;fill-rule:nonzero;stroke:none"
       id="path62" /><g
       id="g64"
       transform="matrix(1,0,0,-1,18,780.6614)"><path
         d="m 364,116 95,0 0,36 -95,0 0,-36 z"
         style="fill:none;stroke:#000000;stroke-width:1;stroke-linecap:round;stroke-linejoin:round;stroke-miterlimit:10;stroke-opacity:1;stroke-dasharray:none"
         id="path66" /></g><text
       y="-643.18274"
       x="432.62817"
       sodipodi:linespacing="125%"
       style="font-size:12px;font-style:normal;font-variant:normal;font-weight:normal;font-stretch:normal;text-align:center;line-height:125%;writing-mode:lr-tb;text-anchor:middle;font-family:Sans;-inkscape-font-specification:Sans"
       id="text70"
       transform="scale(1,-1)"><tspan
         id="tspan72"
         sodipodi:role="line"
         x="432.62817"
         style="font-size:12px;font-style:normal;font-variant:normal;font-weight:normal;font-stretch:normal;text-align:center;line-height:125%;writing-mode:lr-tb;text-anchor:middle;fill:#000000;fill-opacity:1;fill-rule:nonzero;stroke:none;font-family:Sans;-inkscape-font-specification:Sans"
         y="-643.18274">history</tspan></text>
<path
       d="m 93,582.6614 81,0 0,24 -81,0 0,-24 z"
       style="fill:#ffffff;fill-opacity:1;fill-rule:nonzero;stroke:none"
       id="path74" /><g
       id="g76"
       transform="matrix(1,0,0,-1,18,780.6614)"><path
         d="m 75,174 81,0 0,24 -81,0 0,-24 z"
         style="fill:none;stroke:#000000;stroke-width:1;stroke-linecap:round;stroke-linejoin:round;stroke-miterlimit:10;stroke-opacity:1;stroke-dasharray:none"
         id="path78" /></g><g
       id="g80"
       transform="matrix(1,0,0,-1,133.5,594.6614)"><text
         transform="translate(-12.67383,4)"
         id="text82"><tspan
           style="font-size:12px;font-variant:normal;font-weight:normal;writing-mode:lr-tb;fill:#000000;fill-opacity:1;fill-rule:nonzero;stroke:none;font-family:Helvetica;-inkscape-font-specification:Helvetica"
           x="0 6 12 18.672001"
           y="0"
           sodipodi:role="line"
           id="tspan84">scan</tspan></text>
</g><g
       id="g86"
       transform="matrix(1,0,0,-1,18,780.6614)"><path
         d="m 257.5,60 0,8 0,40 0,8"
         style="fill:none;stroke:#797979;stroke-width:2;stroke-linecap:square;stroke-linejoin:round;stroke-miterlimit:10;stroke-opacity:1;stroke-dasharray:none"
         id="path88" /></g><g
       id="g90"
       transform="matrix(1,0,0,-1,18,780.6614)"><path
         d="m 236.5677,60 0,8 0,19.5 -150.0677,0 0,20.5 0,8"
         style="fill:none;stroke:#5e5e5e;stroke-width:2;stroke-linecap:square;stroke-linejoin:round;stroke-miterlimit:10;stroke-opacity:1;stroke-dasharray:none"
         id="path92" /></g><g
       id="g94"
       transform="matrix(1,0,0,-1,18,780.6614)"><path
         d="m 279.4218,60 0,8 0,19.5 132.0782,0 0,20.5 0,8"
         style="fill:none;stroke:#797979;stroke-width:2;stroke-linecap:square;stroke-linejoin:round;stroke-miterlimit:10;stroke-opacity:1;stroke-dasharray:none"
         id="path96" /></g><path
       d="m 93,541.1796 81,0 0,24 -81,0 0,-24 z"
       style="fill:#ffffff;fill-opacity:1;fill-rule:nonzero;stroke:none"
       id="path98" /><g
       id="g100"
       transform="matrix(1,0,0,-1,18,780.6614)"><path
         d="m 75,215.4818 81,0 0,24 -81,0 0,-24 z"
         style="fill:none;stroke:#000000;stroke-width:1;stroke-linecap:round;stroke-linejoin:round;stroke-miterlimit:10;stroke-opacity:1;stroke-dasharray:none"
         id="path102" /></g><g
       id="g104"
       transform="matrix(1,0,0,-1,133.5,553.1796)"><text
         transform="translate(-23.34375,4)"
         id="text106"><tspan
           style="font-size:12px;font-variant:normal;font-weight:normal;writing-mode:lr-tb;fill:#000000;fill-opacity:1;fill-rule:nonzero;stroke:none;font-family:Helvetica;-inkscape-font-specification:Helvetica"
           x="0 6.6719999 10.668 17.34 23.34 29.34 36.012001 40.007999"
           y="0"
           sodipodi:role="line"
           id="tspan108">pressure</tspan></text>
</g><g
       id="g110"
       transform="matrix(1,0,0,-1,18,780.6614)"><path
         d="m 65.5677,152 0,8 0,6.5 27.71319,0 0,0.1233 0,8"
         style="fill:none;stroke:#797979;stroke-width:2;stroke-linecap:square;stroke-linejoin:round;stroke-miterlimit:10;stroke-opacity:1;stroke-dasharray:none"
         id="path112" /></g><g
       id="g114"
       transform="matrix(1,0,0,-1,18,780.6614)"><path
         d="m 65.5677,152 0,8 0,47.5 27.71319,0 0,0.6051 0,8"
         style="fill:none;stroke:#797979;stroke-width:2;stroke-linecap:square;stroke-linejoin:round;stroke-miterlimit:10;stroke-opacity:1;stroke-dasharray:none"
         id="path116" /></g><path
       d="m 93,499.6978 81,0 0,23.99997 -81,0 0,-23.99997 z"
       style="fill:#ffffff;fill-opacity:1;fill-rule:nonzero;stroke:none"
       id="path118" /><g
       id="g120"
       transform="matrix(1,0,0,-1,18,780.6614)"><path
         d="m 75,256.9636 81,0 0,23.99994 -81,0 0,-23.99994 z"
         style="fill:none;stroke:#000000;stroke-width:1;stroke-linecap:round;stroke-linejoin:round;stroke-miterlimit:10;stroke-opacity:1;stroke-dasharray:none"
         id="path122" /></g><g
       id="g124"
       transform="matrix(1,0,0,-1,133.5,511.6978)"><text
         transform="translate(-32.34961,4)"
         id="text126"><tspan
           style="font-size:12px;font-variant:normal;font-weight:normal;writing-mode:lr-tb;fill:#000000;fill-opacity:1;fill-rule:nonzero;stroke:none;font-family:Helvetica;-inkscape-font-specification:Helvetica"
           x="0 3.336 10.008 20.004 26.676001 33.348 37.344002 44.015999 47.352001 54.023998 58.02"
           y="0"
           sodipodi:role="line"
           id="tspan128">temperature</tspan></text>
</g><g
       id="g130"
       transform="matrix(1,0,0,-1,18,780.6614)"><path
         d="m 65.5677,152 0,8 0,89.5 27.71319,0 0,0.0869 0,8"
         style="fill:none;stroke:#797979;stroke-width:2;stroke-linecap:square;stroke-linejoin:round;stroke-miterlimit:10;stroke-opacity:1;stroke-dasharray:none"
         id="path132" /></g><path
       d="m 93,374.5206 81,0 0,24 -81,0 0,-24 z"
       style="fill:#ffffff;fill-opacity:1;fill-rule:nonzero;stroke:none"
       id="path134" /><g
       id="g136"
       transform="matrix(1,0,0,-1,18,780.6614)"><path
         d="m 75,382.1408 81,0 0,24 -81,0 0,-24 z"
         style="fill:none;stroke:#000000;stroke-width:1;stroke-linecap:round;stroke-linejoin:round;stroke-miterlimit:10;stroke-opacity:1;stroke-dasharray:none"
         id="path138" /></g><g
       id="g140"
       transform="matrix(1,0,0,-1,133.5,386.5206)"><text
         transform="translate(-5.000977,4)"
         id="text142"><tspan
           style="font-size:12px;font-variant:normal;font-weight:normal;writing-mode:lr-tb;fill:#000000;fill-opacity:1;fill-rule:nonzero;stroke:none;font-family:Helvetica;-inkscape-font-specification:Helvetica"
           x="0 3.336 6.6719999"
           y="0"
           sodipodi:role="line"
           id="tspan144">...</tspan></text>
</g><path
       d="m 93,458.6978 81,0 0,24 -81,0 0,-24 z"
       style="fill:#ffffff;fill-opacity:1;fill-rule:nonzero;stroke:none"
       id="path146" /><g
       id="g148"
       transform="matrix(1,0,0,-1,18,780.6614)"><path
         d="m 75,297.9636 81,0 0,24 -81,0 0,-24 z"
         style="fill:none;stroke:#000000;stroke-width:1;stroke-linecap:round;stroke-linejoin:round;stroke-miterlimit:10;stroke-opacity:1;stroke-dasharray:none"
         id="path150" /></g><g
       id="g152"
       transform="matrix(1,0,0,-1,133.5,470.6978)"><text
         transform="translate(-18.33984,4)"
         id="text154"><tspan
           style="font-size:12px;font-variant:normal;font-weight:normal;writing-mode:lr-tb;fill:#000000;fill-opacity:1;fill-rule:nonzero;stroke:none;font-family:Helvetica;-inkscape-font-specification:Helvetica"
           x="0 6 12.672 15.336 18 24.672001 27.336 30.672001"
           y="0"
           sodipodi:role="line"
           id="tspan156">salinity</tspan></text>
</g><path
       d="m 92.5,416.6092 81,0 0,24 -81,0 0,-24 z"
       style="fill:#ffffff;fill-opacity:1;fill-rule:nonzero;stroke:none"
       id="path158" /><g
       id="g160"
       transform="matrix(1,0,0,-1,18,780.6614)"><path
         d="m 74.5,340.0522 81,0 0,24 -81,0 0,-24 z"
         style="fill:none;stroke:#000000;stroke-width:1;stroke-linecap:round;stroke-linejoin:round;stroke-miterlimit:10;stroke-opacity:1;stroke-dasharray:none"
         id="path162" /></g><g
       id="g164"
       transform="matrix(1,0,0,-1,133,428.6092)"><text
         transform="translate(-15.01465,4)"
         id="text166"><tspan
           style="font-size:12px;font-variant:normal;font-weight:normal;writing-mode:lr-tb;fill:#000000;fill-opacity:1;fill-rule:nonzero;stroke:none;font-family:Helvetica;-inkscape-font-specification:Helvetica"
           x="0 6.6719999 13.344 20.016001 23.351999"
           y="0"
           sodipodi:role="line"
           id="tspan168">depth</tspan></text>
</g><g
       id="g170"
       transform="matrix(1,0,0,-1,18,780.6614)"><path
         d="m 65.5677,152 0,8 0,130.5 27.71319,0 0,0.0869 0,8"
         style="fill:none;stroke:#797979;stroke-width:2;stroke-linecap:square;stroke-linejoin:round;stroke-miterlimit:10;stroke-opacity:1;stroke-dasharray:none"
         id="path172" /></g><g
       id="g174"
       transform="matrix(1,0,0,-1,18,780.6614)"><path
         d="m 65.5677,330.5 27.21319,0 0,2.1755 0,8"
         style="fill:none;stroke:#797979;stroke-width:2;stroke-linecap:square;stroke-linejoin:round;stroke-miterlimit:10;stroke-opacity:1;stroke-dasharray:none"
         id="path176" /></g><g
       id="g178"
       transform="matrix(1,0,0,-1,18,780.6614)"><path
         d="m 65.5677,152 0,8 0,212.5 27.71319,0 0,2.2641 0,8"
         style="fill:none;stroke:#797979;stroke-width:2;stroke-linecap:square;stroke-linejoin:round;stroke-miterlimit:10;stroke-opacity:1;stroke-dasharray:none"
         id="path180" /></g><path
       d="m 265.5,582.6614 81,0 0,24 -81,0 0,-24 z"
       style="fill:#ffffff;fill-opacity:1;fill-rule:nonzero;stroke:none"
       id="path182" /><g
       id="g184"
       transform="matrix(1,0,0,-1,18,780.6614)"><path
         d="m 247.5,174 81,0 0,24 -81,0 0,-24 z"
         style="fill:none;stroke:#000000;stroke-width:1;stroke-linecap:round;stroke-linejoin:round;stroke-miterlimit:10;stroke-opacity:1;stroke-dasharray:none"
         id="path186" /></g><g
       id="g188"
       transform="matrix(1,0,0,-1,306,594.6614)"><text
         transform="translate(-18.68262,4)"
         id="text190"><tspan
           style="font-size:12px;font-variant:normal;font-weight:normal;writing-mode:lr-tb;fill:#000000;fill-opacity:1;fill-rule:nonzero;stroke:none;font-family:Helvetica;-inkscape-font-specification:Helvetica"
           x="0 6.6719999 13.344 20.016001 26.688 33.360001"
           y="0"
           sodipodi:role="line"
           id="tspan192">header</tspan></text>
</g><path
       d="m 263.4323,541.1796 81,0 0,24 -81,0 0,-24 z"
       style="fill:#ffffff;fill-opacity:1;fill-rule:nonzero;stroke:none"
       id="path194" /><g
       id="g196"
       transform="matrix(1,0,0,-1,18,780.6614)"><path
         d="m 245.4323,215.4818 81,0 0,24 -81,0 0,-24 z"
         style="fill:none;stroke:#000000;stroke-width:1;stroke-linecap:round;stroke-linejoin:round;stroke-miterlimit:10;stroke-opacity:1;stroke-dasharray:none"
         id="path198" /></g><g
       id="g200"
       transform="matrix(1,0,0,-1,303.9323,553.1796)"><text
         transform="translate(-22.67871,4)"
         id="text202"><tspan
           style="font-size:12px;font-variant:normal;font-weight:normal;writing-mode:lr-tb;fill:#000000;fill-opacity:1;fill-rule:nonzero;stroke:none;font-family:Helvetica;-inkscape-font-specification:Helvetica"
           x="0"
           y="0"
           id="tspan204">ﬁ</tspan></text>
</g><g
       id="g206"
       transform="matrix(1,0,0,-1,303.9323,553.1796)"><text
         transform="translate(-16.67871,4)"
         id="text208"><tspan
           style="font-size:12px;font-variant:normal;font-weight:normal;writing-mode:lr-tb;fill:#000000;fill-opacity:1;fill-rule:nonzero;stroke:none;font-family:Helvetica;-inkscape-font-specification:Helvetica"
           x="0 2.664 9.3360004 16.007999 22.68 32.675999"
           y="0"
           sodipodi:role="line"
           id="tspan210">lename</tspan></text>
</g><g
       id="g212"
       transform="matrix(1,0,0,-1,18,780.6614)"><path
         d="m 236.5677,152 0,8 0,6.5 29.2132,0 0,0.1233 0,8"
         style="fill:none;stroke:#797979;stroke-width:2;stroke-linecap:square;stroke-linejoin:round;stroke-miterlimit:10;stroke-opacity:1;stroke-dasharray:none"
         id="path214" /></g><g
       id="g216"
       transform="matrix(1,0,0,-1,18,780.6614)"><path
         d="m 236.5677,207.5 27.1455,0 0,0.6051 0,8"
         style="fill:none;stroke:#797979;stroke-width:2;stroke-linecap:square;stroke-linejoin:round;stroke-miterlimit:10;stroke-opacity:1;stroke-dasharray:none"
         id="path218" /></g><path
       d="m 263.4323,499.6978 81,0 0,23.99997 -81,0 0,-23.99997 z"
       style="fill:#ffffff;fill-opacity:1;fill-rule:nonzero;stroke:none"
       id="path220" /><g
       id="g222"
       transform="matrix(1,0,0,-1,18,780.6614)"><path
         d="m 245.4323,256.9636 81,0 0,23.99994 -81,0 0,-23.99994 z"
         style="fill:none;stroke:#000000;stroke-width:1;stroke-linecap:round;stroke-linejoin:round;stroke-miterlimit:10;stroke-opacity:1;stroke-dasharray:none"
         id="path224" /></g><g
       id="g226"
       transform="matrix(1,0,0,-1,303.9323,511.6978)"><text
         transform="translate(-5.000977,4)"
         id="text228"><tspan
           style="font-size:12px;font-variant:normal;font-weight:normal;writing-mode:lr-tb;fill:#000000;fill-opacity:1;fill-rule:nonzero;stroke:none;font-family:Helvetica;-inkscape-font-specification:Helvetica"
           x="0 3.336 6.6719999"
           y="0"
           sodipodi:role="line"
           id="tspan230">...</tspan></text>
</g><g
       id="g232"
       transform="matrix(1,0,0,-1,18,780.6614)"><path
         d="m 236.5677,152 0,8 0,87.5 27.1455,0 0,2.0869 0,8"
         style="fill:none;stroke:#797979;stroke-width:2;stroke-linecap:square;stroke-linejoin:round;stroke-miterlimit:10;stroke-opacity:1;stroke-dasharray:none"
         id="path234" /></g><path
       d="m 420.9994,582.6614 81,0 0,24 -81,0 0,-24 z"
       style="fill:#ffffff;fill-opacity:1;fill-rule:nonzero;stroke:none"
       id="path236" /><g
       id="g238"
       transform="matrix(1,0,0,-1,18,780.6614)"><path
         d="m 402.9994,174 81,0 0,24 -81,0 0,-24 z"
         style="fill:none;stroke:#000000;stroke-width:1;stroke-linecap:round;stroke-linejoin:round;stroke-miterlimit:10;stroke-opacity:1;stroke-dasharray:none"
         id="path240" /></g><g
       id="g242"
       transform="matrix(1,0,0,-1,461.4994,594.6614)"><text
         transform="translate(-11.33496,4)"
         id="text244"><tspan
           style="font-size:12px;font-variant:normal;font-weight:normal;writing-mode:lr-tb;fill:#000000;fill-opacity:1;fill-rule:nonzero;stroke:none;font-family:Helvetica;-inkscape-font-specification:Helvetica"
           x="0 3.336 6 15.996"
           y="0"
           sodipodi:role="line"
           id="tspan246">time</tspan></text>
</g><path
       d="m 420.9994,541.1796 81,0 0,24 -81,0 0,-24 z"
       style="fill:#ffffff;fill-opacity:1;fill-rule:nonzero;stroke:none"
       id="path248" /><g
       id="g250"
       transform="matrix(1,0,0,-1,18,780.6614)"><path
         d="m 402.9994,215.4818 81,0 0,24 -81,0 0,-24 z"
         style="fill:none;stroke:#000000;stroke-width:1;stroke-linecap:round;stroke-linejoin:round;stroke-miterlimit:10;stroke-opacity:1;stroke-dasharray:none"
         id="path252" /></g><g
       id="g254"
       transform="matrix(1,0,0,-1,461.4994,553.1796)"><text
         transform="translate(-16.01074,4)"
         id="text256"><tspan
           style="font-size:12px;font-variant:normal;font-weight:normal;writing-mode:lr-tb;fill:#000000;fill-opacity:1;fill-rule:nonzero;stroke:none;font-family:Helvetica;-inkscape-font-specification:Helvetica"
           x="0 6.6719999 12.672 16.007999 18.672001 25.344"
           y="0"
           sodipodi:role="line"
           id="tspan258">action</tspan></text>
</g><g
       id="g260"
       transform="matrix(1,0,0,-1,18,780.6614)"><path
         d="m 386.9498,166.5 34.3305,0 0,0.1233 0,8"
         style="fill:none;stroke:#797979;stroke-width:2;stroke-linecap:square;stroke-linejoin:round;stroke-miterlimit:10;stroke-opacity:1;stroke-dasharray:none"
         id="path262" /></g><g
       id="g264"
       transform="matrix(1,0,0,-1,18,780.6614)"><path
         d="m 386.9498,152 0,8 0,47.5 34.3305,0 0,0.6051 0,8"
         style="fill:none;stroke:#797979;stroke-width:2;stroke-linecap:square;stroke-linejoin:round;stroke-miterlimit:10;stroke-opacity:1;stroke-dasharray:none"
         id="path266" /></g></g></svg>